<svg xmlns="http://www.w3.org/2000/svg" xmlns:xlink="http://www.w3.org/1999/xlink" width="709pt" height="431pt" viewBox="0.00 0.00 709.00 431.00">
<g id="graph0" class="graph" transform="scale(1 1) rotate(0) translate(4 427.2)">
<title>ServiceDependencies</title>
<polygon fill="white" stroke="none" points="-4,4 -4,-427.2 704.71,-427.2 704.71,4 -4,4"/>
<text xml:space="preserve" text-anchor="middle" x="350.35" y="-404.8" font-family="Times,serif" font-size="16.00">Service Dependency Graph</text>
<!-- node0 -->
<g id="node1" class="node">
<title>node0</title>
<path fill="#e1f5ff" stroke="#0288d1" d="M524.7,-252C524.7,-252 460.67,-252 460.67,-252 454.67,-252 448.67,-246 448.67,-240 448.67,-240 448.67,-228 448.67,-228 448.67,-222 454.67,-216 460.67,-216 460.67,-216 524.7,-216 524.7,-216 530.7,-216 536.7,-222 536.7,-228 536.7,-228 536.7,-240 536.7,-240 536.7,-246 530.7,-252 524.7,-252"/>
<text xml:space="preserve" text-anchor="middle" x="492.68" y="-230.4" font-family="Arial" font-size="12.00">RoomService</text>
</g>
<!-- node2 -->
<g id="node3" class="node">
<title>node2</title>
<path fill="#c8e6c9" stroke="#388e3c" d="M465.68,-36C465.68,-36 435.68,-36 435.68,-36 429.68,-36 423.68,-30 423.68,-24 423.68,-24 423.68,-12 423.68,-12 423.68,-6 429.68,0 435.68,0 435.68,0 465.68,0 465.68,0 471.68,0 477.68,-6 477.68,-12 477.68,-12 477.68,-24 477.68,-24 477.68,-30 471.68,-36 465.68,-36"/>
<text xml:space="preserve" text-anchor="middle" x="450.68" y="-14.4" font-family="Arial" font-size="12.00">Logger</text>
</g>
<!-- node0&#45;&gt;node2 -->
<g id="edge1" class="edge">
<title>node0-&gt;node2</title>
<path fill="none" stroke="#666666" d="M495.66,-215.97C500.19,-185.95 506.63,-122.05 489.68,-72 486.21,-61.73 479.94,-51.78 473.44,-43.34"/>
<polygon fill="#666666" stroke="#666666" points="475.66,-41.63 468.43,-37.21 471.33,-45.18 475.66,-41.63"/>
</g>
<!-- node4 -->
<g id="node5" class="node">
<title>node4</title>
<path fill="#e1f5ff" stroke="#0288d1" d="M129.37,-180C129.37,-180 48,-180 48,-180 42,-180 36,-174 36,-168 36,-168 36,-156 36,-156 36,-150 42,-144 48,-144 48,-144 129.37,-144 129.37,-144 135.37,-144 141.37,-150 141.37,-156 141.37,-156 141.37,-168 141.37,-168 141.37,-174 135.37,-180 129.37,-180"/>
<text xml:space="preserve" text-anchor="middle" x="88.68" y="-158.4" font-family="Arial" font-size="12.00">RoomRepository</text>
</g>
<!-- node0&#45;&gt;node4 -->
<g id="edge2" class="edge">
<title>node0-&gt;node4</title>
<path fill="none" stroke="#666666" d="M448.39,-227.77C384.64,-219.89 263.21,-203.54 150.8,-179.9"/>
<polygon fill="#666666" stroke="#666666" points="151.57,-177.2 143.17,-178.27 150.41,-182.68 151.57,-177.2"/>
</g>
<!-- node1 -->
<g id="node2" class="node">
<title>node1</title>
<path fill="#ffccbc" stroke="#d84315" d="M594.7,-324C594.7,-324 518.67,-324 518.67,-324 512.67,-324 506.67,-318 506.67,-312 506.67,-312 506.67,-300 506.67,-300 506.67,-294 512.67,-288 518.67,-288 518.67,-288 594.7,-288 594.7,-288 600.7,-288 606.7,-294 606.7,-300 606.7,-300 606.7,-312 606.7,-312 606.7,-318 600.7,-324 594.7,-324"/>
<text xml:space="preserve" text-anchor="middle" x="556.68" y="-302.4" font-family="Arial" font-size="12.00">RoomController</text>
</g>
<!-- node1&#45;&gt;node0 -->
<g id="edge4" class="edge">
<title>node1-&gt;node0</title>
<path fill="none" stroke="#666666" d="M540.86,-287.7C532.96,-279.05 523.27,-268.45 514.65,-259.03"/>
<polygon fill="#666666" stroke="#666666" points="516.81,-257.24 509.34,-253.22 512.68,-261.01 516.81,-257.24"/>
</g>
<!-- node1&#45;&gt;node2 -->
<g id="edge3" class="edge">
<title>node1-&gt;node2</title>
<path fill="none" stroke="#666666" d="M556.79,-287.53C556.27,-246.77 550.5,-143.45 507.68,-72 501.1,-61.01 491.57,-50.89 482.18,-42.5"/>
<polygon fill="#666666" stroke="#666666" points="484.14,-40.49 476.23,-37.42 480.5,-44.75 484.14,-40.49"/>
</g>
<!-- node7 -->
<g id="node8" class="node">
<title>node7</title>
<path fill="#c8e6c9" stroke="#388e3c" d="M651.02,-252C651.02,-252 604.35,-252 604.35,-252 598.35,-252 592.35,-246 592.35,-240 592.35,-240 592.35,-228 592.35,-228 592.35,-222 598.35,-216 604.35,-216 604.35,-216 651.02,-216 651.02,-216 657.02,-216 663.02,-222 663.02,-228 663.02,-228 663.02,-240 663.02,-240 663.02,-246 657.02,-252 651.02,-252"/>
<text xml:space="preserve" text-anchor="middle" x="627.68" y="-230.4" font-family="Arial" font-size="12.00">HttpErrors</text>
</g>
<!-- node1&#45;&gt;node7 -->
<g id="edge5" class="edge">
<title>node1-&gt;node7</title>
<path fill="none" stroke="#666666" d="M574.24,-287.7C583.09,-278.97 593.97,-268.24 603.59,-258.75"/>
<polygon fill="#666666" stroke="#666666" points="605.53,-260.78 609.26,-253.17 601.6,-256.79 605.53,-260.78"/>
</g>
<!-- node3 -->
<g id="node4" class="node">
<title>node3</title>
<path fill="#e1f5ff" stroke="#0288d1" d="M435.38,-180C435.38,-180 321.99,-180 321.99,-180 315.99,-180 309.99,-174 309.99,-168 309.99,-168 309.99,-156 309.99,-156 309.99,-150 315.99,-144 321.99,-144 321.99,-144 435.38,-144 435.38,-144 441.38,-144 447.38,-150 447.38,-156 447.38,-156 447.38,-168 447.38,-168 447.38,-174 441.38,-180 435.38,-180"/>
<text xml:space="preserve" text-anchor="middle" x="378.68" y="-158.4" font-family="Arial" font-size="12.00">ReservationRepository</text>
</g>
<!-- node3&#45;&gt;node2 -->
<g id="edge6" class="edge">
<title>node3-&gt;node2</title>
<path fill="none" stroke="#666666" d="M387.51,-143.59C400.1,-118.76 423.3,-73.01 437.81,-44.4"/>
<polygon fill="#666666" stroke="#666666" points="440.2,-45.86 441.32,-37.46 435.21,-43.33 440.2,-45.86"/>
</g>
<!-- node6 -->
<g id="node7" class="node">
<title>node6</title>
<path fill="#e1f5ff" stroke="#0288d1" d="M343.37,-108C343.37,-108 288,-108 288,-108 282,-108 276,-102 276,-96 276,-96 276,-84 276,-84 276,-78 282,-72 288,-72 288,-72 343.37,-72 343.37,-72 349.37,-72 355.37,-78 355.37,-84 355.37,-84 355.37,-96 355.37,-96 355.37,-102 349.37,-108 343.37,-108"/>
<text xml:space="preserve" text-anchor="middle" x="315.68" y="-86.4" font-family="Arial" font-size="12.00">DataSource</text>
</g>
<!-- node3&#45;&gt;node6 -->
<g id="edge7" class="edge">
<title>node3-&gt;node6</title>
<path fill="none" stroke="#666666" d="M363.11,-143.7C355.33,-135.05 345.79,-124.45 337.31,-115.03"/>
<polygon fill="#666666" stroke="#666666" points="339.52,-113.3 332.09,-109.23 335.36,-117.05 339.52,-113.3"/>
</g>
<!-- node4&#45;&gt;node2 -->
<g id="edge8" class="edge">
<title>node4-&gt;node2</title>
<path fill="none" stroke="#666666" d="M119.09,-143.64C153.92,-124.27 213.09,-92.91 266.68,-72 316.65,-52.5 376.71,-36.53 414.3,-27.39"/>
<polygon fill="#666666" stroke="#666666" points="414.76,-30.15 421.88,-25.56 413.45,-24.71 414.76,-30.15"/>
</g>
<!-- node4&#45;&gt;node6 -->
<g id="edge9" class="edge">
<title>node4-&gt;node6</title>
<path fill="none" stroke="#666666" d="M141.62,-144.68C179.42,-133.02 229.9,-117.45 266.76,-106.09"/>
<polygon fill="#666666" stroke="#666666" points="267.56,-108.77 274.38,-103.74 265.91,-103.42 267.56,-108.77"/>
</g>
<!-- node5 -->
<g id="node6" class="node">
<title>node5</title>
<path fill="#ffccbc" stroke="#d84315" d="M279.71,-180C279.71,-180 171.66,-180 171.66,-180 165.66,-180 159.66,-174 159.66,-168 159.66,-168 159.66,-156 159.66,-156 159.66,-150 165.66,-144 171.66,-144 171.66,-144 279.71,-144 279.71,-144 285.71,-144 291.71,-150 291.71,-156 291.71,-156 291.71,-168 291.71,-168 291.71,-174 285.71,-180 279.71,-180"/>
<text xml:space="preserve" text-anchor="middle" x="225.68" y="-158.4" font-family="Arial" font-size="12.00">RoomTypeRepository</text>
</g>
<!-- node5&#45;&gt;node6 -->
<g id="edge10" class="edge">
<title>node5-&gt;node6</title>
<path fill="none" stroke="#666666" d="M247.93,-143.7C259.4,-134.78 273.54,-123.78 285.93,-114.14"/>
<polygon fill="#666666" stroke="#666666" points="287.59,-116.4 292.19,-109.28 284.15,-111.98 287.59,-116.4"/>
</g>
<!-- node6&#45;&gt;node2 -->
<g id="edge11" class="edge">
<title>node6-&gt;node2</title>
<path fill="none" stroke="#666666" d="M349.4,-71.52C369.36,-61.17 394.62,-48.07 414.92,-37.55"/>
<polygon fill="#666666" stroke="#666666" points="416.13,-40.07 421.94,-33.9 413.55,-35.1 416.13,-40.07"/>
</g>
<!-- node8 -->
<g id="node9" class="node">
<title>node8</title>
<path fill="#e1f5ff" stroke="#0288d1" d="M360.71,-324C360.71,-324 264.66,-324 264.66,-324 258.66,-324 252.66,-318 252.66,-312 252.66,-312 252.66,-300 252.66,-300 252.66,-294 258.66,-288 264.66,-288 264.66,-288 360.71,-288 360.71,-288 366.71,-288 372.71,-294 372.71,-300 372.71,-300 372.71,-312 372.71,-312 372.71,-318 366.71,-324 360.71,-324"/>
<text xml:space="preserve" text-anchor="middle" x="312.68" y="-302.4" font-family="Arial" font-size="12.00">ReservationService</text>
</g>
<!-- node8&#45;&gt;node2 -->
<g id="edge12" class="edge">
<title>node8-&gt;node2</title>
<path fill="none" stroke="#666666" d="M345.74,-287.68C380.75,-267.26 434.02,-229.7 456.68,-180 476.65,-136.22 467.08,-78.58 458.64,-45.48"/>
<polygon fill="#666666" stroke="#666666" points="461.39,-44.89 456.6,-37.89 455.98,-46.34 461.39,-44.89"/>
</g>
<!-- node8&#45;&gt;node3 -->
<g id="edge14" class="edge">
<title>node8-&gt;node3</title>
<path fill="none" stroke="#666666" d="M320.78,-287.59C332.32,-262.76 353.58,-217.01 366.88,-188.4"/>
<polygon fill="#666666" stroke="#666666" points="369.26,-189.92 370.09,-181.48 364.18,-187.56 369.26,-189.92"/>
</g>
<!-- node8&#45;&gt;node4 -->
<g id="edge13" class="edge">
<title>node8-&gt;node4</title>
<path fill="none" stroke="#666666" d="M271.76,-287.53C250.85,-278 225.32,-265.43 203.68,-252 171.89,-232.26 138.35,-205.54 115.76,-186.54"/>
<polygon fill="#666666" stroke="#666666" points="117.6,-184.43 109.69,-181.39 113.98,-188.7 117.6,-184.43"/>
</g>
<!-- node10 -->
<g id="node11" class="node">
<title>node10</title>
<path fill="#e1f5ff" stroke="#0288d1" d="M293.03,-252C293.03,-252 224.34,-252 224.34,-252 218.34,-252 212.34,-246 212.34,-240 212.34,-240 212.34,-228 212.34,-228 212.34,-222 218.34,-216 224.34,-216 224.34,-216 293.03,-216 293.03,-216 299.03,-216 305.03,-222 305.03,-228 305.03,-228 305.03,-240 305.03,-240 305.03,-246 299.03,-252 293.03,-252"/>
<text xml:space="preserve" text-anchor="middle" x="258.68" y="-230.4" font-family="Arial" font-size="12.00">PricingService</text>
</g>
<!-- node8&#45;&gt;node10 -->
<g id="edge15" class="edge">
<title>node8-&gt;node10</title>
<path fill="none" stroke="#666666" d="M299.34,-287.7C292.8,-279.22 284.81,-268.86 277.65,-259.58"/>
<polygon fill="#666666" stroke="#666666" points="279.91,-257.93 272.8,-253.3 275.47,-261.35 279.91,-257.93"/>
</g>
<!-- node11 -->
<g id="node12" class="node">
<title>node11</title>
<path fill="#e1f5ff" stroke="#0288d1" d="M91.37,-108C91.37,-108 12,-108 12,-108 6,-108 0,-102 0,-96 0,-96 0,-84 0,-84 0,-78 6,-72 12,-72 12,-72 91.37,-72 91.37,-72 97.37,-72 103.37,-78 103.37,-84 103.37,-84 103.37,-96 103.37,-96 103.37,-102 97.37,-108 91.37,-108"/>
<text xml:space="preserve" text-anchor="middle" x="51.68" y="-86.4" font-family="Arial" font-size="12.00">PaymentService</text>
</g>
<!-- node8&#45;&gt;node11 -->
<g id="edge16" class="edge">
<title>node8-&gt;node11</title>
<path fill="none" stroke="#666666" d="M252.18,-299.05C182.71,-288.51 72.44,-259.48 26.68,-180 15.3,-160.22 24.28,-134.95 34.51,-116.39"/>
<polygon fill="#666666" stroke="#666666" points="36.81,-118 38.46,-109.69 31.99,-115.16 36.81,-118"/>
</g>
<!-- node9 -->
<g id="node10" class="node">
<title>node9</title>
<path fill="#ffccbc" stroke="#d84315" d="M688.71,-396C688.71,-396 580.66,-396 580.66,-396 574.66,-396 568.66,-390 568.66,-384 568.66,-384 568.66,-372 568.66,-372 568.66,-366 574.66,-360 580.66,-360 580.66,-360 688.71,-360 688.71,-360 694.71,-360 700.71,-366 700.71,-372 700.71,-372 700.71,-384 700.71,-384 700.71,-390 694.71,-396 688.71,-396"/>
<text xml:space="preserve" text-anchor="middle" x="634.68" y="-374.4" font-family="Arial" font-size="12.00">ReservationController</text>
</g>
<!-- node9&#45;&gt;node2 -->
<g id="edge17" class="edge">
<title>node9-&gt;node2</title>
<path fill="none" stroke="#666666" d="M646.29,-359.93C662.69,-334.09 690.68,-282.97 690.68,-235 690.68,-235 690.68,-235 690.68,-161 690.68,-67.56 554.26,-34.3 487.13,-23.59"/>
<polygon fill="#666666" stroke="#666666" points="487.57,-20.82 479.25,-22.39 486.74,-26.36 487.57,-20.82"/>
</g>
<!-- node9&#45;&gt;node7 -->
<g id="edge19" class="edge">
<title>node9-&gt;node7</title>
<path fill="none" stroke="#666666" d="M633.83,-359.59C632.62,-335.08 630.41,-290.19 628.99,-261.52"/>
<polygon fill="#666666" stroke="#666666" points="631.79,-261.47 628.6,-253.62 626.2,-261.75 631.79,-261.47"/>
</g>
<!-- node9&#45;&gt;node8 -->
<g id="edge18" class="edge">
<title>node9-&gt;node8</title>
<path fill="none" stroke="#666666" d="M568.36,-362.58C513.95,-350.75 437.16,-334.06 381.96,-322.06"/>
<polygon fill="#666666" stroke="#666666" points="382.84,-319.39 374.43,-320.42 381.65,-324.86 382.84,-319.39"/>
</g>
<!-- node10&#45;&gt;node4 -->
<g id="edge20" class="edge">
<title>node10-&gt;node4</title>
<path fill="none" stroke="#666666" d="M216.22,-215.52C193.01,-205.96 164.1,-194.05 139.67,-184"/>
<polygon fill="#666666" stroke="#666666" points="140.76,-181.41 132.3,-180.96 138.63,-186.59 140.76,-181.41"/>
</g>
<!-- node11&#45;&gt;node2 -->
<g id="edge21" class="edge">
<title>node11-&gt;node2</title>
<path fill="none" stroke="#666666" d="M103.85,-79.85C185.92,-65.45 343.18,-37.86 414.23,-25.39"/>
<polygon fill="#666666" stroke="#666666" points="414.38,-28.21 421.78,-24.07 413.42,-22.7 414.38,-28.21"/>
</g>
</g>
</svg>