<svg xmlns="http://www.w3.org/2000/svg" xmlns:xlink="http://www.w3.org/1999/xlink" width="571pt" height="431pt" viewBox="0.00 0.00 571.00 431.00">
<g id="graph0" class="graph" transform="scale(1 1) rotate(0) translate(4 427.2)">
<title>ServiceDependencies</title>
<polygon fill="white" stroke="none" points="-4,4 -4,-427.2 566.77,-427.2 566.77,4 -4,4"/>
<text xml:space="preserve" text-anchor="middle" x="281.38" y="-404.8" font-family="Times,serif" font-size="16.00">Service Dependency Graph</text>
<!-- node0 -->
<g id="node1" class="node">
<title>node0</title>
<path fill="#e1f5ff" stroke="#0288d1" d="M484.78,-252C484.78,-252 420.76,-252 420.76,-252 414.76,-252 408.76,-246 408.76,-240 408.76,-240 408.76,-228 408.76,-228 408.76,-222 414.76,-216 420.76,-216 420.76,-216 484.78,-216 484.78,-216 490.78,-216 496.78,-222 496.78,-228 496.78,-228 496.78,-240 496.78,-240 496.78,-246 490.78,-252 484.78,-252"/>
<text xml:space="preserve" text-anchor="middle" x="452.77" y="-230.4" font-family="Arial" font-size="12.00">RoomService</text>
</g>
<!-- node2 -->
<g id="node3" class="node">
<title>node2</title>
<path fill="#c8e6c9" stroke="#388e3c" d="M368.77,-36C368.77,-36 338.77,-36 338.77,-36 332.77,-36 326.77,-30 326.77,-24 326.77,-24 326.77,-12 326.77,-12 326.77,-6 332.77,0 338.77,0 338.77,0 368.77,0 368.77,0 374.77,0 380.77,-6 380.77,-12 380.77,-12 380.77,-24 380.77,-24 380.77,-30 374.77,-36 368.77,-36"/>
<text xml:space="preserve" text-anchor="middle" x="353.77" y="-14.4" font-family="Arial" font-size="12.00">Logger</text>
</g>
<!-- node0&#45;&gt;node2 -->
<g id="edge1" class="edge">
<title>node0-&gt;node2</title>
<path fill="none" stroke="#666666" d="M460.92,-215.73C468.39,-197.38 477,-167.82 467.77,-144 451.3,-101.51 412.93,-64.62 385.25,-42.14"/>
<polygon fill="#666666" stroke="#666666" points="387.3,-40.19 379.29,-37.4 383.81,-44.57 387.3,-40.19"/>
</g>
<!-- node4 -->
<g id="node5" class="node">
<title>node4</title>
<path fill="#e1f5ff" stroke="#0288d1" d="M446.45,-180C446.45,-180 365.09,-180 365.09,-180 359.09,-180 353.09,-174 353.09,-168 353.09,-168 353.09,-156 353.09,-156 353.09,-150 359.09,-144 365.09,-144 365.09,-144 446.45,-144 446.45,-144 452.45,-144 458.45,-150 458.45,-156 458.45,-156 458.45,-168 458.45,-168 458.45,-174 452.45,-180 446.45,-180"/>
<text xml:space="preserve" text-anchor="middle" x="405.77" y="-158.4" font-family="Arial" font-size="12.00">RoomRepository</text>
</g>
<!-- node0&#45;&gt;node4 -->
<g id="edge2" class="edge">
<title>node0-&gt;node4</title>
<path fill="none" stroke="#666666" d="M441.15,-215.7C435.52,-207.3 428.64,-197.07 422.46,-187.86"/>
<polygon fill="#666666" stroke="#666666" points="424.88,-186.44 418.1,-181.36 420.23,-189.56 424.88,-186.44"/>
</g>
<!-- node1 -->
<g id="node2" class="node">
<title>node1</title>
<path fill="#ffccbc" stroke="#d84315" d="M506.78,-324C506.78,-324 430.75,-324 430.75,-324 424.75,-324 418.75,-318 418.75,-312 418.75,-312 418.75,-300 418.75,-300 418.75,-294 424.75,-288 430.75,-288 430.75,-288 506.78,-288 506.78,-288 512.78,-288 518.78,-294 518.78,-300 518.78,-300 518.78,-312 518.78,-312 518.78,-318 512.78,-324 506.78,-324"/>
<text xml:space="preserve" text-anchor="middle" x="468.77" y="-302.4" font-family="Arial" font-size="12.00">RoomController</text>
</g>
<!-- node1&#45;&gt;node0 -->
<g id="edge4" class="edge">
<title>node1-&gt;node0</title>
<path fill="none" stroke="#666666" d="M464.81,-287.7C462.99,-279.73 460.79,-270.1 458.77,-261.26"/>
<polygon fill="#666666" stroke="#666666" points="461.53,-260.75 457.02,-253.58 456.07,-262 461.53,-260.75"/>
</g>
<!-- node1&#45;&gt;node2 -->
<g id="edge3" class="edge">
<title>node1-&gt;node2</title>
<path fill="none" stroke="#666666" d="M484.81,-287.85C492.78,-278.12 501.59,-265.27 505.77,-252 520.47,-205.27 501.94,-189.49 483.77,-144 470.5,-110.78 472.43,-97.92 447.77,-72 431.53,-54.93 408.57,-41.85 389.4,-32.95"/>
<polygon fill="#666666" stroke="#666666" points="390.73,-30.47 382.28,-29.77 388.45,-35.59 390.73,-30.47"/>
</g>
<!-- node3 -->
<g id="node4" class="node">
<title>node3</title>
<path fill="#e1f5ff" stroke="#0288d1" d="M172.46,-180C172.46,-180 59.07,-180 59.07,-180 53.07,-180 47.07,-174 47.07,-168 47.07,-168 47.07,-156 47.07,-156 47.07,-150 53.07,-144 59.07,-144 59.07,-144 172.46,-144 172.46,-144 178.46,-144 184.46,-150 184.46,-156 184.46,-156 184.46,-168 184.46,-168 184.46,-174 178.46,-180 172.46,-180"/>
<text xml:space="preserve" text-anchor="middle" x="115.77" y="-158.4" font-family="Arial" font-size="12.00">ReservationRepository</text>
</g>
<!-- node3&#45;&gt;node2 -->
<g id="edge5" class="edge">
<title>node3-&gt;node2</title>
<path fill="none" stroke="#666666" d="M136.27,-143.85C159.63,-124.8 199.41,-93.87 236.77,-72 262.88,-56.71 294.17,-42.74 317.82,-32.99"/>
<polygon fill="#666666" stroke="#666666" points="318.73,-35.64 325.09,-30.03 316.62,-30.46 318.73,-35.64"/>
</g>
<!-- node6 -->
<g id="node7" class="node">
<title>node6</title>
<path fill="#e1f5ff" stroke="#0288d1" d="M313.45,-108C313.45,-108 258.08,-108 258.08,-108 252.08,-108 246.08,-102 246.08,-96 246.08,-96 246.08,-84 246.08,-84 246.08,-78 252.08,-72 258.08,-72 258.08,-72 313.45,-72 313.45,-72 319.45,-72 325.45,-78 325.45,-84 325.45,-84 325.45,-96 325.45,-96 325.45,-102 319.45,-108 313.45,-108"/>
<text xml:space="preserve" text-anchor="middle" x="285.77" y="-86.4" font-family="Arial" font-size="12.00">DataSource</text>
</g>
<!-- node3&#45;&gt;node6 -->
<g id="edge6" class="edge">
<title>node3-&gt;node6</title>
<path fill="none" stroke="#666666" d="M158.23,-143.52C182.16,-133.66 212.15,-121.32 237.03,-111.07"/>
<polygon fill="#666666" stroke="#666666" points="237.87,-113.75 244.2,-108.12 235.74,-108.57 237.87,-113.75"/>
</g>
<!-- node4&#45;&gt;node2 -->
<g id="edge7" class="edge">
<title>node4-&gt;node2</title>
<path fill="none" stroke="#666666" d="M399.39,-143.59C390.34,-118.86 373.69,-73.41 363.21,-44.77"/>
<polygon fill="#666666" stroke="#666666" points="365.94,-44.08 360.56,-37.53 360.68,-46.01 365.94,-44.08"/>
</g>
<!-- node4&#45;&gt;node6 -->
<g id="edge8" class="edge">
<title>node4-&gt;node6</title>
<path fill="none" stroke="#666666" d="M375.8,-143.52C359.93,-134.26 340.28,-122.8 323.4,-112.95"/>
<polygon fill="#666666" stroke="#666666" points="324.99,-110.64 316.67,-109.02 322.17,-115.47 324.99,-110.64"/>
</g>
<!-- node5 -->
<g id="node6" class="node">
<title>node5</title>
<path fill="#ffccbc" stroke="#d84315" d="M322.79,-180C322.79,-180 214.75,-180 214.75,-180 208.75,-180 202.75,-174 202.75,-168 202.75,-168 202.75,-156 202.75,-156 202.75,-150 208.75,-144 214.75,-144 214.75,-144 322.79,-144 322.79,-144 328.79,-144 334.79,-150 334.79,-156 334.79,-156 334.79,-168 334.79,-168 334.79,-174 328.79,-180 322.79,-180"/>
<text xml:space="preserve" text-anchor="middle" x="268.77" y="-158.4" font-family="Arial" font-size="12.00">RoomTypeRepository</text>
</g>
<!-- node5&#45;&gt;node6 -->
<g id="edge9" class="edge">
<title>node5-&gt;node6</title>
<path fill="none" stroke="#666666" d="M272.97,-143.7C274.91,-135.73 277.24,-126.1 279.39,-117.26"/>
<polygon fill="#666666" stroke="#666666" points="282.09,-118.01 281.26,-109.58 276.65,-116.69 282.09,-118.01"/>
</g>
<!-- node6&#45;&gt;node2 -->
<g id="edge10" class="edge">
<title>node6-&gt;node2</title>
<path fill="none" stroke="#666666" d="M302.58,-71.7C311.06,-62.97 321.48,-52.24 330.7,-42.75"/>
<polygon fill="#666666" stroke="#666666" points="332.53,-44.88 336.1,-37.19 328.52,-40.98 332.53,-44.88"/>
</g>
<!-- node7 -->
<g id="node8" class="node">
<title>node7</title>
<path fill="#e1f5ff" stroke="#0288d1" d="M255.79,-324C255.79,-324 159.75,-324 159.75,-324 153.75,-324 147.75,-318 147.75,-312 147.75,-312 147.75,-300 147.75,-300 147.75,-294 153.75,-288 159.75,-288 159.75,-288 255.79,-288 255.79,-288 261.79,-288 267.79,-294 267.79,-300 267.79,-300 267.79,-312 267.79,-312 267.79,-318 261.79,-324 255.79,-324"/>
<text xml:space="preserve" text-anchor="middle" x="207.77" y="-302.4" font-family="Arial" font-size="12.00">ReservationService</text>
</g>
<!-- node7&#45;&gt;node2 -->
<g id="edge11" class="edge">
<title>node7-&gt;node2</title>
<path fill="none" stroke="#666666" d="M147.27,-295.4C117.48,-287.95 82.87,-274.86 58.77,-252 -0.03,-196.24 -23.13,-133.38 29.77,-72 66.61,-29.25 240.33,-20.92 317.12,-19.35"/>
<polygon fill="#666666" stroke="#666666" points="316.96,-22.15 324.91,-19.21 316.86,-16.55 316.96,-22.15"/>
</g>
<!-- node7&#45;&gt;node3 -->
<g id="edge13" class="edge">
<title>node7-&gt;node3</title>
<path fill="none" stroke="#666666" d="M196.49,-287.59C180.33,-262.65 150.51,-216.62 131.99,-188.03"/>
<polygon fill="#666666" stroke="#666666" points="134.38,-186.57 127.68,-181.38 129.68,-189.62 134.38,-186.57"/>
</g>
<!-- node7&#45;&gt;node4 -->
<g id="edge12" class="edge">
<title>node7-&gt;node4</title>
<path fill="none" stroke="#666666" d="M216.94,-287.7C228.2,-267.94 249,-235.79 274.77,-216 295.13,-200.36 320.73,-188.65 343.88,-180.28"/>
<polygon fill="#666666" stroke="#666666" points="344.56,-183 351.19,-177.72 342.72,-177.72 344.56,-183"/>
</g>
<!-- node9 -->
<g id="node10" class="node">
<title>node9</title>
<path fill="#e1f5ff" stroke="#0288d1" d="M364.12,-252C364.12,-252 295.42,-252 295.42,-252 289.42,-252 283.42,-246 283.42,-240 283.42,-240 283.42,-228 283.42,-228 283.42,-222 289.42,-216 295.42,-216 295.42,-216 364.12,-216 364.12,-216 370.12,-216 376.12,-222 376.12,-228 376.12,-228 376.12,-240 376.12,-240 376.12,-246 370.12,-252 364.12,-252"/>
<text xml:space="preserve" text-anchor="middle" x="329.77" y="-230.4" font-family="Arial" font-size="12.00">PricingService</text>
</g>
<!-- node7&#45;&gt;node9 -->
<g id="edge14" class="edge">
<title>node7-&gt;node9</title>
<path fill="none" stroke="#666666" d="M238.24,-287.52C254.37,-278.26 274.35,-266.8 291.51,-256.95"/>
<polygon fill="#666666" stroke="#666666" points="292.83,-259.42 298.37,-253.01 290.04,-254.57 292.83,-259.42"/>
</g>
<!-- node10 -->
<g id="node11" class="node">
<title>node10</title>
<path fill="#e1f5ff" stroke="#0288d1" d="M130.45,-108C130.45,-108 51.08,-108 51.08,-108 45.08,-108 39.08,-102 39.08,-96 39.08,-96 39.08,-84 39.08,-84 39.08,-78 45.08,-72 51.08,-72 51.08,-72 130.45,-72 130.45,-72 136.45,-72 142.45,-78 142.45,-84 142.45,-84 142.45,-96 142.45,-96 142.45,-102 136.45,-108 130.45,-108"/>
<text xml:space="preserve" text-anchor="middle" x="90.77" y="-86.4" font-family="Arial" font-size="12.00">PaymentService</text>
</g>
<!-- node7&#45;&gt;node10 -->
<g id="edge15" class="edge">
<title>node7-&gt;node10</title>
<path fill="none" stroke="#666666" d="M165.14,-287.51C124.02,-268.05 64.23,-232.3 37.77,-180 30.55,-165.72 31.65,-158.78 37.77,-144 42.37,-132.9 50.54,-122.91 59.11,-114.68"/>
<polygon fill="#666666" stroke="#666666" points="60.82,-116.91 64.89,-109.48 57.07,-112.75 60.82,-116.91"/>
</g>
<!-- node8 -->
<g id="node9" class="node">
<title>node8</title>
<path fill="#ffccbc" stroke="#d84315" d="M416.79,-396C416.79,-396 308.74,-396 308.74,-396 302.74,-396 296.74,-390 296.74,-384 296.74,-384 296.74,-372 296.74,-372 296.74,-366 302.74,-360 308.74,-360 308.74,-360 416.79,-360 416.79,-360 422.79,-360 428.79,-366 428.79,-372 428.79,-372 428.79,-384 428.79,-384 428.79,-390 422.79,-396 416.79,-396"/>
<text xml:space="preserve" text-anchor="middle" x="362.77" y="-374.4" font-family="Arial" font-size="12.00">ReservationController</text>
</g>
<!-- node8&#45;&gt;node2 -->
<g id="edge16" class="edge">
<title>node8-&gt;node2</title>
<path fill="none" stroke="#666666" d="M429.06,-369.28C462.27,-362.33 501,-349.11 527.77,-324 558.77,-294.92 562.77,-277.5 562.77,-235 562.77,-235 562.77,-235 562.77,-161 562.77,-78.55 450.12,-40.63 390.23,-26.29"/>
<polygon fill="#666666" stroke="#666666" points="390.99,-23.59 382.57,-24.53 389.74,-29.05 390.99,-23.59"/>
</g>
<!-- node8&#45;&gt;node7 -->
<g id="edge17" class="edge">
<title>node8-&gt;node7</title>
<path fill="none" stroke="#666666" d="M324.06,-359.52C303.08,-350.04 276.99,-338.26 254.85,-328.26"/>
<polygon fill="#666666" stroke="#666666" points="256.08,-325.75 247.64,-325 253.78,-330.85 256.08,-325.75"/>
</g>
<!-- node9&#45;&gt;node4 -->
<g id="edge18" class="edge">
<title>node9-&gt;node4</title>
<path fill="none" stroke="#666666" d="M348.56,-215.7C358.06,-206.95 369.73,-196.19 380.05,-186.69"/>
<polygon fill="#666666" stroke="#666666" points="381.83,-188.85 385.82,-181.37 378.04,-184.73 381.83,-188.85"/>
</g>
<!-- node10&#45;&gt;node2 -->
<g id="edge19" class="edge">
<title>node10-&gt;node2</title>
<path fill="none" stroke="#666666" d="M142.73,-75.17C194.3,-61.44 272.01,-40.76 317.34,-28.69"/>
<polygon fill="#666666" stroke="#666666" points="318.03,-31.41 325.04,-26.65 316.59,-26 318.03,-31.41"/>
</g>
</g>
</svg>